<mxfile host="app.diagrams.net" modified="2024-06-02T17:06:00.018Z" agent="Mozilla/5.0 (X11; Linux x86_64) AppleWebKit/537.36 (KHTML, like Gecko) Chrome/114.0.0.0 Safari/537.36" version="24.4.13" etag="W7AkRVPTDP2DY2bSgzGh" type="github">
  <diagram name="Page-1" id="BrLTWmvRZILn_3xfc5K8">
    <mxGraphModel>
      <root>
        <mxCell id="0" />
        <mxCell id="1" parent="0" />
      </root>
    </mxGraphModel>
  </diagram>
</mxfile>
